<svg width="66" height="50" viewBox="0 0 66 50" fill="none" xmlns="http://www.w3.org/2000/svg">
<path d="M58.269 4.10303H7.38599C5.57296 4.10303 4.10321 5.57278 4.10321 7.3858V41.855C4.10321 43.668 5.57296 45.1377 7.38599 45.1377H58.269C60.0821 45.1377 61.5518 43.668 61.5518 41.855V7.3858C61.5518 5.57278 60.0821 4.10303 58.269 4.10303Z" fill="white" stroke="#22C55E" stroke-width="1.70616"/>
<path d="M4.71881 32.8276H60.9364V41.8553C60.9364 43.2915 59.7053 44.5225 58.2691 44.5225H7.38607C5.94985 44.5225 4.71881 43.2915 4.71881 41.8553V32.8276Z" fill="#F8FAFC"/>
<path d="M4.71881 32.8276H60.9364" stroke="#F1F5F9" stroke-width="1.13744"/>
<path d="M57.4486 36.1104H8.20692C7.75367 36.1104 7.38623 36.4778 7.38623 36.931C7.38623 37.3843 7.75367 37.7517 8.20692 37.7517H57.4486C57.9018 37.7517 58.2693 37.3843 58.2693 36.931C58.2693 36.4778 57.9018 36.1104 57.4486 36.1104Z" fill="#CBD5E1"/>
<path d="M52.5244 40.2139H8.20692C7.75367 40.2139 7.38623 40.5813 7.38623 41.0346C7.38623 41.4878 7.75367 41.8553 8.20692 41.8553H52.5244C52.9777 41.8553 53.3451 41.4878 53.3451 41.0346C53.3451 40.5813 52.9777 40.2139 52.5244 40.2139Z" fill="#CBD5E1"/>
<path d="M20.5173 7.38574H9.02762C8.12111 7.38574 7.38623 8.12062 7.38623 9.02713V27.0824C7.38623 27.9889 8.12111 28.7238 9.02762 28.7238H20.5173C21.4239 28.7238 22.1587 27.9889 22.1587 27.0824V9.02713C22.1587 8.12062 21.4239 7.38574 20.5173 7.38574Z" fill="#E2E8F0"/>
<path d="M14.7722 18.0548C16.5852 18.0548 18.055 16.5851 18.055 14.772C18.055 12.959 16.5852 11.4893 14.7722 11.4893C12.9592 11.4893 11.4894 12.959 11.4894 14.772C11.4894 16.5851 12.9592 18.0548 14.7722 18.0548Z" fill="#94A3B8"/>
<path d="M9.84821 24.6206C9.84821 20.5171 19.6965 20.5171 19.6965 24.6206H9.84821Z" fill="#94A3B8"/>
<path d="M55.6018 9.84863H27.2878C26.7213 9.84863 26.262 10.3079 26.262 10.8745C26.262 11.4411 26.7213 11.9004 27.2878 11.9004H55.6018C56.1684 11.9004 56.6277 11.4411 56.6277 10.8745C56.6277 10.3079 56.1684 9.84863 55.6018 9.84863Z" fill="#E2E8F0"/>
<path d="M58.0639 15.5928H27.2878C26.7213 15.5928 26.262 16.0521 26.262 16.6186C26.262 17.1852 26.7213 17.6445 27.2878 17.6445H58.0639C58.6304 17.6445 59.0897 17.1852 59.0897 16.6186C59.0897 16.0521 58.6304 15.5928 58.0639 15.5928Z" fill="#E2E8F0"/>
<path d="M51.4983 21.3374H27.2878C26.7213 21.3374 26.262 21.7967 26.262 22.3633C26.262 22.9298 26.7213 23.3891 27.2878 23.3891H51.4983C52.0649 23.3891 52.5242 22.9298 52.5242 22.3633C52.5242 21.7967 52.0649 21.3374 51.4983 21.3374Z" fill="#E2E8F0"/>
<path d="M41.65 27.083H27.2878C26.7213 27.083 26.262 27.5423 26.262 28.1089C26.262 28.6754 26.7213 29.1347 27.2878 29.1347H41.65C42.2166 29.1347 42.6759 28.6754 42.6759 28.1089C42.6759 27.5423 42.2166 27.083 41.65 27.083Z" fill="#E2E8F0"/>
<path d="M59.9105 48.4201C62.63 48.4201 64.8347 46.2155 64.8347 43.4959C64.8347 40.7764 62.63 38.5718 59.9105 38.5718C57.191 38.5718 54.9863 40.7764 54.9863 43.4959C54.9863 46.2155 57.191 48.4201 59.9105 48.4201Z" fill="white"/>
<path d="M59.9105 47.6005C62.1768 47.6005 64.014 45.7633 64.014 43.497C64.014 41.2307 62.1768 39.3936 59.9105 39.3936C57.6443 39.3936 55.8071 41.2307 55.8071 43.497C55.8071 45.7633 57.6443 47.6005 59.9105 47.6005Z" fill="#22C55E"/>
<path d="M57.8588 43.4964L59.295 44.9326L61.9623 41.855" stroke="white" stroke-width="1.4218" stroke-linecap="round" stroke-linejoin="round"/>
</svg>
